<mxfile host="Electron" agent="Mozilla/5.0 (Macintosh; Intel Mac OS X 10_15_7) AppleWebKit/537.36 (KHTML, like Gecko) draw.io/26.2.15 Chrome/134.0.6998.205 Electron/35.2.1 Safari/537.36" version="26.2.15">
  <diagram name="페이지-1" id="Wrm9N8Nni0yZCXM2AscO">
    <mxGraphModel dx="1414" dy="622" grid="1" gridSize="10" guides="1" tooltips="1" connect="1" arrows="1" fold="1" page="1" pageScale="1" pageWidth="200" pageHeight="200" math="0" shadow="0">
      <root>
        <mxCell id="0" />
        <mxCell id="1" parent="0" />
        <mxCell id="jfbxoVNwou6Wi6mcgj0v-1" value="" style="rounded=0;whiteSpace=wrap;html=1;" parent="1" vertex="1">
          <mxGeometry x="-581" y="50" width="771" height="320" as="geometry" />
        </mxCell>
        <mxCell id="jfbxoVNwou6Wi6mcgj0v-2" value=":User" style="shape=umlActor;verticalLabelPosition=bottom;verticalAlign=top;html=1;outlineConnect=0;" parent="1" vertex="1">
          <mxGeometry x="-530" y="169.99500000000003" width="30" height="60" as="geometry" />
        </mxCell>
        <mxCell id="jfbxoVNwou6Wi6mcgj0v-3" value=":Login&lt;span style=&quot;background-color: transparent; color: light-dark(rgb(0, 0, 0), rgb(255, 255, 255));&quot;&gt;UI&lt;/span&gt;" style="rounded=0;whiteSpace=wrap;html=1;" parent="1" vertex="1">
          <mxGeometry x="-370" y="180" width="100" height="40" as="geometry" />
        </mxCell>
        <mxCell id="jfbxoVNwou6Wi6mcgj0v-4" value=":Login" style="rounded=0;whiteSpace=wrap;html=1;" parent="1" vertex="1">
          <mxGeometry x="-150" y="185" width="80" height="30" as="geometry" />
        </mxCell>
        <mxCell id="jfbxoVNwou6Wi6mcgj0v-5" value="" style="endArrow=none;html=1;rounded=0;exitX=1;exitY=0.5;exitDx=0;exitDy=0;entryX=0;entryY=0.5;entryDx=0;entryDy=0;" parent="1" source="jfbxoVNwou6Wi6mcgj0v-3" target="jfbxoVNwou6Wi6mcgj0v-4" edge="1">
          <mxGeometry width="50" height="50" relative="1" as="geometry">
            <mxPoint x="-210" y="249.99500000000003" as="sourcePoint" />
            <mxPoint x="-160" y="199.99500000000003" as="targetPoint" />
          </mxGeometry>
        </mxCell>
        <mxCell id="jfbxoVNwou6Wi6mcgj0v-6" value="" style="endArrow=none;html=1;rounded=0;entryX=0;entryY=0.5;entryDx=0;entryDy=0;" parent="1" source="jfbxoVNwou6Wi6mcgj0v-2" target="jfbxoVNwou6Wi6mcgj0v-3" edge="1">
          <mxGeometry width="50" height="50" relative="1" as="geometry">
            <mxPoint x="-210" y="249.99500000000003" as="sourcePoint" />
            <mxPoint x="-160" y="199.99500000000003" as="targetPoint" />
          </mxGeometry>
        </mxCell>
        <mxCell id="jfbxoVNwou6Wi6mcgj0v-8" value="" style="endArrow=none;html=1;rounded=0;entryX=0.5;entryY=1;entryDx=0;entryDy=0;exitX=0.5;exitY=0;exitDx=0;exitDy=0;" parent="1" source="jfbxoVNwou6Wi6mcgj0v-23" target="jfbxoVNwou6Wi6mcgj0v-4" edge="1">
          <mxGeometry width="50" height="50" relative="1" as="geometry">
            <mxPoint x="-200" y="249.99500000000003" as="sourcePoint" />
            <mxPoint x="-150" y="199.99500000000003" as="targetPoint" />
          </mxGeometry>
        </mxCell>
        <mxCell id="jfbxoVNwou6Wi6mcgj0v-9" value="" style="endArrow=classic;html=1;rounded=0;" parent="1" edge="1">
          <mxGeometry width="50" height="50" relative="1" as="geometry">
            <mxPoint x="-170" y="219.99500000000003" as="sourcePoint" />
            <mxPoint x="-236" y="219.99500000000003" as="targetPoint" />
          </mxGeometry>
        </mxCell>
        <mxCell id="jfbxoVNwou6Wi6mcgj0v-10" value="" style="group" parent="1" vertex="1" connectable="0">
          <mxGeometry x="-579.995" y="110.00000000000003" width="167.5" height="82.82" as="geometry" />
        </mxCell>
        <mxCell id="jfbxoVNwou6Wi6mcgj0v-11" value="" style="shape=card;whiteSpace=wrap;html=1;rotation=90;direction=south;size=21;" parent="jfbxoVNwou6Wi6mcgj0v-10" vertex="1">
          <mxGeometry x="36.09" y="-96.09" width="28.44" height="100.64" as="geometry" />
        </mxCell>
        <mxCell id="jfbxoVNwou6Wi6mcgj0v-12" value="&lt;font style=&quot;font-size: 15px;&quot;&gt;&lt;b&gt;Login&lt;/b&gt;&lt;/font&gt;" style="text;html=1;align=center;verticalAlign=middle;whiteSpace=wrap;rounded=0;" parent="jfbxoVNwou6Wi6mcgj0v-10" vertex="1">
          <mxGeometry x="0.004999999999997229" y="-61.995000000000005" width="90" height="30" as="geometry" />
        </mxCell>
        <mxCell id="jfbxoVNwou6Wi6mcgj0v-13" value="1: startInterface()" style="text;html=1;align=center;verticalAlign=middle;whiteSpace=wrap;rounded=0;" parent="1" vertex="1">
          <mxGeometry x="-266" y="229.99500000000003" width="120" height="30" as="geometry" />
        </mxCell>
        <mxCell id="jfbxoVNwou6Wi6mcgj0v-16" value="" style="endArrow=classic;html=1;rounded=0;" parent="1" edge="1">
          <mxGeometry width="50" height="50" relative="1" as="geometry">
            <mxPoint x="-236" y="179.32500000000005" as="sourcePoint" />
            <mxPoint x="-170" y="179.32500000000005" as="targetPoint" />
          </mxGeometry>
        </mxCell>
        <mxCell id="jfbxoVNwou6Wi6mcgj0v-17" value="" style="endArrow=classic;html=1;rounded=0;" parent="1" edge="1">
          <mxGeometry width="50" height="50" relative="1" as="geometry">
            <mxPoint x="-466" y="179.32500000000005" as="sourcePoint" />
            <mxPoint x="-400" y="179.32500000000005" as="targetPoint" />
          </mxGeometry>
        </mxCell>
        <mxCell id="jfbxoVNwou6Wi6mcgj0v-18" value="2: login&lt;span style=&quot;background-color: transparent; color: light-dark(rgb(0, 0, 0), rgb(255, 255, 255));&quot;&gt;()&lt;/span&gt;" style="text;html=1;align=center;verticalAlign=middle;whiteSpace=wrap;rounded=0;" parent="1" vertex="1">
          <mxGeometry x="-500" y="147.99500000000003" width="130" height="30" as="geometry" />
        </mxCell>
        <mxCell id="jfbxoVNwou6Wi6mcgj0v-21" value="2.1: authenticate()" style="text;html=1;align=center;verticalAlign=middle;whiteSpace=wrap;rounded=0;" parent="1" vertex="1">
          <mxGeometry x="-275" y="147.99500000000003" width="146" height="30" as="geometry" />
        </mxCell>
        <mxCell id="jfbxoVNwou6Wi6mcgj0v-23" value=":UserRepository" style="rounded=0;whiteSpace=wrap;html=1;" parent="1" vertex="1">
          <mxGeometry x="-170" y="319.995" width="120" height="40" as="geometry" />
        </mxCell>
        <mxCell id="jfbxoVNwou6Wi6mcgj0v-28" value=":User" style="rounded=0;whiteSpace=wrap;html=1;" parent="1" vertex="1">
          <mxGeometry x="95" y="180" width="65" height="40" as="geometry" />
        </mxCell>
        <mxCell id="jfbxoVNwou6Wi6mcgj0v-29" value="" style="endArrow=none;html=1;rounded=0;exitX=0.5;exitY=0;exitDx=0;exitDy=0;entryX=0;entryY=0.5;entryDx=0;entryDy=0;" parent="1" source="jfbxoVNwou6Wi6mcgj0v-23" target="jfbxoVNwou6Wi6mcgj0v-28" edge="1">
          <mxGeometry width="50" height="50" relative="1" as="geometry">
            <mxPoint x="20" y="340" as="sourcePoint" />
            <mxPoint x="210" y="215" as="targetPoint" />
          </mxGeometry>
        </mxCell>
        <mxCell id="ErNHC7NsJw2brG-NTUp9-2" value="" style="endArrow=none;html=1;rounded=0;entryX=1;entryY=0.5;entryDx=0;entryDy=0;exitX=0;exitY=0.5;exitDx=0;exitDy=0;" edge="1" parent="1" source="jfbxoVNwou6Wi6mcgj0v-28" target="jfbxoVNwou6Wi6mcgj0v-4">
          <mxGeometry width="50" height="50" relative="1" as="geometry">
            <mxPoint x="-200" y="340" as="sourcePoint" />
            <mxPoint x="-150" y="290" as="targetPoint" />
          </mxGeometry>
        </mxCell>
        <mxCell id="ErNHC7NsJw2brG-NTUp9-4" value="2.1.1: findUserById()" style="text;html=1;align=center;verticalAlign=middle;whiteSpace=wrap;rounded=0;" vertex="1" parent="1">
          <mxGeometry x="-110" y="239.99500000000006" width="146" height="30" as="geometry" />
        </mxCell>
        <mxCell id="ErNHC7NsJw2brG-NTUp9-6" value="" style="endArrow=classic;html=1;rounded=0;" edge="1" parent="1">
          <mxGeometry width="50" height="50" relative="1" as="geometry">
            <mxPoint x="-100" y="230" as="sourcePoint" />
            <mxPoint x="-100" y="300" as="targetPoint" />
          </mxGeometry>
        </mxCell>
        <mxCell id="ErNHC7NsJw2brG-NTUp9-7" value="" style="endArrow=classic;html=1;rounded=0;" edge="1" parent="1">
          <mxGeometry width="50" height="50" relative="1" as="geometry">
            <mxPoint x="-30" y="185" as="sourcePoint" />
            <mxPoint x="52" y="185" as="targetPoint" />
          </mxGeometry>
        </mxCell>
        <mxCell id="ErNHC7NsJw2brG-NTUp9-8" value="2.1.2: checkPw()" style="text;html=1;align=center;verticalAlign=middle;whiteSpace=wrap;rounded=0;" vertex="1" parent="1">
          <mxGeometry x="-65" y="153.99500000000003" width="146" height="30" as="geometry" />
        </mxCell>
      </root>
    </mxGraphModel>
  </diagram>
</mxfile>
